<?xml version="1.0" encoding="UTF-8"?>
<svg id="svg1" xmlns="http://www.w3.org/2000/svg" xmlns:svg="http://www.w3.org/2000/svg" xmlns:sodipodi="http://sodipodi.sourceforge.net/DTD/sodipodi-0.dtd" xmlns:inkscape="http://www.inkscape.org/namespaces/inkscape" version="1.1" viewBox="0 0 1451.3 1451.3">
  <!-- Generator: Adobe Illustrator 29.7.1, SVG Export Plug-In . SVG Version: 2.1.1 Build 8)  -->
  <defs>
    <style>
      .st0 {
        fill: #54c1fd;
      }

      .st1 {
        fill: #fff;
      }

      .st2 {
        fill: #4f013f;
      }

      .st3 {
        fill: #f99541;
      }

      .st4 {
        fill: #98d559;
      }
    </style>
  </defs>
  <sodipodi:namedview id="namedview1" bordercolor="#000000" borderopacity="0.25" inkscape:current-layer="layer1" inkscape:cx="436.42132" inkscape:cy="526.43322" inkscape:deskcolor="#d1d1d1" inkscape:document-units="mm" inkscape:pagecheckerboard="0" inkscape:pageopacity="0.0" inkscape:showpageshadow="2" inkscape:window-height="1378" inkscape:window-maximized="1" inkscape:window-width="2560" inkscape:window-x="1072" inkscape:window-y="1072" inkscape:zoom="0.3666182" pagecolor="#ffffff" showguides="true"/>
  <g id="layer1" inkscape:groupmode="layer" inkscape:label="Layer 1">
    <g id="g6873">
      <path id="path6876" class="st0" d="M481.5,993.9c-19.1-18.5-35.9-28.1-80.2-46.1-68.8-27.9-82.9-39.8-97.2-82-7.9-23.4-16.4-38.2-29.2-51.1-28.3-28.4-71.1-40.5-121.5-34.3-10.1,1.2-19.7,2.6-21.4,3.1l-3.1.9,3.3-15.4c13.1-60.4,41.7-119.4,82.2-169.3,15.1-18.5,44.1-47.4,61.6-61.1l12.5-9.8,16.5,5.2c40.5,12.7,81.3,19.1,146,23.1l13.6.8.7,20.9c.8,23.6,2.7,32.8,10.4,48.3,6.5,13,20.2,26.5,32.9,32.5l8.9,4.1-.9,10c-1.1,12,1.1,43,4.2,59.2,4.9,26.1,17.6,57.1,31.4,76.8,15.1,21.5,40.7,43.7,64.3,55.7l8.4,4.3-14.3,9.7c-31.2,21.3-58.6,45.3-78.5,68.6-12.4,14.6-29.4,38.3-36.6,51l-3.1,5.4-10.9-10.6Z"/>
      <path id="path6875" class="st3" d="M1049.3,1232c-1.3-9.7-6.2-23.2-12.2-33.5-16.6-28.5-48.6-49.5-92.3-60.6-19.7-5-49.4-9.2-64.6-9.2h-9.2v-26c0-22.3-.5-27.6-3.2-37.3-9.8-35.8-34.6-60.8-69.6-70.5-11.6-3.2-37.7-5.9-48.7-4.9-23.7,2-21.5,2.2-22.5-2.6-.5-2.4-.9-6.2-.9-8.5,0-17.5-11.7-49.2-26.2-71l-10.4-15.7,17.9-8.6c94.9-45.5,238.1-79.9,369.8-88.9,17.7-1.2,24.6-4,29.9-12.2,3.2-4.8,4-7.6,4-14.2,0-15.5-10.8-25.5-27.6-25.6-10.7,0-48.5,3.6-82.5,7.9-15.5,2-28.6,3.1-29.1,2.5-.5-.6-2-5.3-3.4-10.4-12.8-48.9-32-91.7-65.3-145.3-24.3-39.2-28.6-44.9-35.5-47.8-12.4-5.2-20.9-1.6-39.9,17-48.1,47.1-96.4,80.9-123.8,86.5-16.9,3.5-22.1-2.1-23-24.6-.6-15.8,1.3-31.4,6.3-50.6,6.1-23.8,3.6-34.2-9.8-41-14.3-7.2-20.7-4.7-42.6,16.2-31.9,30.6-70.4,56-91.5,60.3-7.4,1.5-8.7,1.4-13.3-1.1-2.8-1.5-6.2-4.4-7.6-6.4-6.6-9.2-8.7-35.3-4.7-57.7,2.9-16.2,2.6-23.2-1.1-29.9-5.1-9.1-11.9-12.1-27.9-12.1-57.7-.2-121-7.8-160.4-19.2-10.3-3-13.8-4.8-18.4-9.3-3.1-3.1-7.7-6.3-10.2-7.2-2.9-1-4.6-2.6-4.6-4.1s3.2-40.9,7.1-87.8,7.1-86.7,7.1-88.5c0-2.6,1.5-4,7.5-6.7,27.9-12.4,74.9-24.7,115.2-30,24.7-3.3,28.1-6.2,35-30.3,6.7-23.6,23.1-64,26.9-66.1,1.4-.8,96.3,3.8,97.1,4.7,1.2,1.5,3.8,22,3.8,30.8,0,21.1,6.3,31.4,21,34.7,14.3,3.2,24.1-3.8,31.9-23.2,2.9-7.3,8.8-19.5,13.1-27.2l7.7-14,12.2.8c16.8,1.2,94.3,5,100.8,5s5.4.4,6.8,5.3c2.8,9.8,7.1,37.6,7.1,45.7,0,10.4,2.1,17.6,6.6,23,4.8,5.8,9.3,8,24.1,11.7,19.8,5,56.3,4.4,106.4-1.7,46.9-5.7,82.9-6.5,106.7-2.3,36.4,6.5,69,22.6,97.5,48.3l8.4,7.6-3.8,5.8c-5.4,8.2-10.5,12.7-19.8,17.5-10.7,5.5-15.8,13-15.8,23.2,0,9.7,2.3,13.5,16.8,28.5,38,39.3,65.5,85.7,79.2,133.7,2.8,9.9,6.5,28.8,9,46.4,6.3,44.2,14.7,70.8,32.1,102.4,18.6,33.7,38.4,57.2,77.2,91.8l5.5,4.9-4.6,9.2c-12.1,24.1-32.6,48.3-47.3,55.8-3.9,2-10.9,4.4-15.5,5.3-16.4,3.3-23.5,11.3-25.4,28.5-9.4,88.2-37.7,180.9-76.2,249.6-18.6,33.2-35.2,56.7-60.4,85.7-14.1,16.2-42.3,43.5-45,43.5s-1.5-2.9-1.9-6.3h0ZM582.2,448c15.8-3.2,34-9.4,49.1-16.6,7.7-3.7,11.2-6.3,14-10.6,8.3-12.6,4.6-29.6-7.9-36.7-8.8-4.9-16.8-4.5-30.5,1.6-35.2,15.7-61,17.9-83.9,7.1-11.6-5.5-25.7-19.7-32.4-32.8-6.4-12.3-9.9-16.3-17.5-19.5-15.1-6.3-31.8,3.5-34.4,20.2-1.1,7.3,1.5,15.1,9.6,29.1,17.9,30.6,45.9,51.3,80.2,58.9,12.6,2.8,37.9,2.4,53.7-.8h0ZM789.4,425.9c5.2-1.6,8.8-4,13.5-9,11.7-12.6,12.3-30.2,1.4-43-14.9-17.6-42.4-14.6-53,5.8-3.6,6.8-4,9-3.6,17.4.4,7.8,1.3,10.6,4.7,15.5,5,7.2,9.5,10.7,17,13.4,7.2,2.6,11.3,2.6,20,0h0ZM570.2,338.2c3.5-1,8.2-4.1,12.2-8.2,13.7-13.8,13-34.9-1.4-47.4-10.3-8.9-22.8-10.7-34.8-5-8.4,4-12.3,7.9-16.1,16.6-5.1,11.3-2.6,26,6,35.4,4.4,4.9,16.3,10.1,22.9,10.1,3.1,0,8.2-.7,11.3-1.6h0Z"/>
      <path id="path6874" class="st4" d="M724.5,66.9c-.5-.5-1.7-.5-2.7-.1-1,.4-.9.7.4.8.2,0,.3,0,.5,0,.8,0,1.3,0,1.7-.2.3-.1.4-.3.2-.6ZM655.5,99.1c-.4,0-2.9,2.2-5.5,5-2.6,2.7-4.5,5-4.1,5s2.9-2.2,5.5-5c2.6-2.7,4.5-5,4.1-5ZM1023.3,196.4c-1-.4-2.6-.4-3.5,0-1,.4-.2.7,1.8.7s2.7-.3,1.8-.7ZM979.6,196.4c-1-.4-2.9-.4-4.2,0-1.4.4-.6.7,1.7.7,2.3,0,3.5-.3,2.5-.7ZM960.4,197.9c-.5-.5-1.7-.5-2.7-.1-.6.2-.8.4-.6.6.2.2.7.2,1.5.3,1.3,0,2.1-.2,2-.6,0,0,0-.1-.1-.2ZM946.4,199.4s0,0,0-.1c-.5-.5-1.7-.5-2.7-.1-.6.2-.8.5-.6.6.2.1.7.2,1.4.3,1.4,0,2.2-.2,2-.6ZM933.7,200.9c0,0,0,0,0-.1-.5-.5-1.7-.5-2.7-.1-.7.3-.8.5-.5.6.2.1.7.2,1.4.2,1.3,0,2.1-.2,2-.6ZM922.3,202.2s0,0,0,0c-.5-.5-1.7-.5-2.7-.1-.5.2-.7.4-.6.6.1.2.6.3,1.5.3,1.4,0,2.3-.2,1.9-.7ZM909.6,203.7s0,0,0,0c-.5-.5-1.7-.5-2.7-.1-.5.2-.7.4-.6.5,0,.2.6.3,1.5.3,1.4,0,2.3-.3,1.9-.7ZM845.9,201.3c-.3-.8-.5-.9-.7-.3,0,.2-.1.6-.1,1.2,0,1.4.2,2.2.6,2,0,0,0,0,.1,0,.5-.5.5-1.7.1-2.7ZM896.8,205s0,0,0,0c-.5-.4-1.7-.4-2.6,0-.3.1-.5.2-.6.3-.3.3.2.5,1.4.5,1.5,0,2.3-.3,1.9-.8ZM879.9,206.3c-1.3-.4-3.9-.4-5.7,0-.8.2-1,.3-.7.4.4.1,1.5.2,3.1.2,3.1,0,4.5-.3,3.2-.6ZM858,206.4c-1-.4-2.9-.4-4.2,0-.7.2-.8.3-.6.5.3.1,1.1.2,2.3.2.3,0,.6,0,.8,0h0c1.7,0,2.5-.3,1.6-.7ZM1184,272.1c-3.4-3.5-6.6-6.4-6.9-6.4s1.5,2.2,4.2,5c0,0,.1.1.2.2.4.4.8.8,1.2,1.2.8.9,1.7,1.7,2.5,2.5,0,0,0,0,0,0,2.3,2.3,4.1,3.8,4.4,3.8s-2.1-2.9-5.5-6.4ZM222.9,281.2c-1.4,1.1-2.5,2.2-2.5,2.5,0,.5.2.6.5.5.5-.2,1.2-.8,2.1-2,.1-.1.3-.3.4-.5,1.8-2.2,1.7-2.3-.5-.5ZM210.2,294c-1.4,1.1-2.5,2.2-2.5,2.5,0,1.2,1.2.4,3-2,1.8-2.3,1.7-2.3-.5-.5ZM1176.9,350.8c0,0-.2.1-.3.2-1.4,1.1-2.5,2.2-2.5,2.5s0,.5.2.5c.4.2,1.4-.7,2.8-2.5,1.7-2.2,1.7-2.3-.3-.7ZM210.5,480.2c-.2-.5-1-1.2-2.2-2.4-.3-.2-.6-.5-.9-.8l-3.2-2.7,2.7,3.2c1.5,1.8,2.9,3.2,3.2,3.2.5,0,.6-.2.4-.6ZM217.1,486.7c-.5-.6-1.4-1.4-2.6-2.5,0,0,0,0,0,0l-3.1-2.7,2.7,3.2c1.5,1.8,2.9,3.2,3.2,3.2.6,0,.6-.4,0-1.2ZM218.8,519.2c-.4,0-2.2,1.6-4,3.6-1.8,2-3,3.6-2.6,3.6s0,0,0,0c.5-.2,2.2-1.7,3.9-3.5.6-.7,1.2-1.3,1.6-1.8,0,0,0,0,0,0,.8-1,1.2-1.7,1-1.7ZM197.7,540.5c-.4,0-2.2,1.6-4,3.6-1.8,2-3,3.6-2.6,3.6s1-.6,2-1.6c0,0,0,0,0,0,.6-.6,1.3-1.3,2-2,.6-.6,1.1-1.2,1.5-1.7,0,0,0,0,0,0,.9-1.1,1.3-1.8,1.1-1.8ZM1325.7,690l-3.3-3.1-2-1.8,4.9,5.3c3.2,3.6,4.8,5.1,5.4,5.3h0c.2,0,.3,0,.3-.4s-2.4-2.6-5.3-5.3ZM1336.3,700.7l-4.6-4.2,2.2,2.4,2,2.2c2.3,2.5,4.3,4.6,4.6,4.6s.4,0,.4-.2h0c0-.5-1.4-1.9-4.6-4.8ZM1382.8,748.8c-.4-1.4-.7-.2-.7,2.5s.3,3.9.7,2.5c.3-1.4.3-3.6,0-5ZM74.6,802.7c0-.1,0-.3-.1-.4-.5-1.1-.8-.8-.8.9,0,1.5.2,2.3.7,1.9,0,0,0,0,0,0,.4-.4.5-1.4.2-2.3ZM73.2,815.7c0-.2,0-.5-.2-.7-.4-1-.7-.2-.7,1.8s.3,2.7.7,1.8c0,0,0,0,0,0,.3-.8.4-2,.2-2.9ZM907.7,719.3c-8.5-23.4-24.6-57.1-37.7-78.5-18.3-30.1-14.2-28.8-34.2-11.1-74.6,66.1-130.5,88.8-170,68.8-19.5-9.8-35.4-36.8-35.5-60.4,0-12.7-.2-12.7-14.7-2.8-12.4,8.5-37.1,22-40.3,22s-2.8,1.3-4.3,2.8c-2.5,2.6-2.8,4.8-2.8,22.4,0,1.3,0,2.5,0,3.8.3,22.8,3.2,41.8,9.3,59.4.2.5.3,1,.5,1.4,2.2,6.3,4.9,12.4,8,18.5,13.8,27,36.2,47,66.6,59.5,2.1.9,4.2,1.7,6.4,2.5,0,0,.2,0,.2,0,.6.2,1.2.4,1.8.6.6.2,1.2.4,1.8.6.4.2.9.3,1.3.4,1,.3,1.9.6,2.9.9.1,0,.2,0,.3.1,1,.3,2,.6,3.1.9,1.5.4,3,.9,4.5,1.3,5.4,1.4,10.7,2.7,11.8,2.7,1,0,7.1-2.2,13.4-5,58.3-25.9,135.7-49.9,204.4-63.3,8.9-1.8,16.4-3.3,16.6-3.5.7-.5-8.2-30.1-13.2-44.2ZM1326.6,849.6h0s0,0,0,0c-.4,0-1.8,1.3-3.3,2.8-.5.6-1,1.1-1.3,1.6-.6.8-.8,1.3-.6,1.3.4,0,1.9-1.3,3.3-2.8,1.3-1.4,2.1-2.6,1.9-2.8ZM71.8,849.3c-.3-5.7-.5-1.4-.5,9.5s.2,15.6.5,10.4.3-14.2,0-19.9ZM73.1,899.2c-.5-1.1-.8-.8-.9.9,0,1.5.3,2.3.7,1.9.5-.5.5-1.7.1-2.7ZM74.5,913.4c0,0,0-.1,0-.2-.4-.9-.7-.5-.8,1,0,1.5.3,2.3.7,1.9,0,0,.2-.2.2-.4.2-.6.2-1.5-.1-2.3ZM601.6,950.5c-1.4,1.1-2.5,2.2-2.5,2.5s0,.3,0,.4c.3.5,1.4-.4,2.9-2.4.2-.2.4-.5.5-.7t0,0c1.2-1.5.9-1.4-1.1.2ZM586.1,964.9c-.4,0-1.9,1.3-3.3,2.9-1.4,1.6-2.2,2.8-1.8,2.8s.1,0,.2,0c.6-.3,1.8-1.4,3-2.8.5-.6,1-1.1,1.3-1.6.6-.8.8-1.3.6-1.3ZM676.4,992.4c-.3-1.1-.5-.8-.7.5,0,0,0,0,0,0,0,.4,0,.8,0,1.3,0,.8,0,1.5,0,2,0,0,0,0,0,0,.1.9.3,1.1.6.5.4-1,.4-2.9,0-4.3ZM775.3,1042.4c-.5-.5-1.7-.5-2.7-.1-.2,0-.3.1-.4.2-.5.4,0,.6,1.3.7.9,0,1.6,0,1.9-.3.2-.1.2-.3,0-.5ZM820.5,1091.3c-.1-.4-.3-.5-.4-.4-.2.2-.3.9-.3,2.2,0,1.9.3,2.7.7,1.9,0,0,0,0,0-.1.4-1,.4-2.6,0-3.6ZM820.5,1107.7s0,0,0,0c-.3-1.3-.6-.5-.7,1.8,0,1.6.1,2.7.3,2.8,0,0,.2,0,.3-.3.4-1,.4-2.9,0-4.3ZM491.3,1161.2c0-.1,0-.2-.1-.3-.4-.7-.7-.3-.7,1.2,0,1.2.1,2,.5,2,0,0,.2,0,.3-.1.5-.5.5-1.7.1-2.7ZM819.9,1171.2c-2.2-1.8-2.3-1.7-.5.5,1.1,1.4,2.2,2.5,2.5,2.5,1.2,0,.4-1.2-1.9-3ZM889.1,1180.5c-1-.4-2.9-.4-4.2,0-1.4.4-.6.7,1.7.7,2.3,0,3.5-.3,2.5-.6ZM203.9,1182.7l-3.9-3.5,3.4,3.9c1.9,2.2,3.6,3.9,3.9,3.9,1.1,0,.2-1.2-3.4-4.4ZM491.3,1192.5c-.1-.3-.2-.5-.3-.6-.3-.2-.5.3-.5,1.5,0,1.5.3,2.3.7,1.9,0,0,0,0,0,0,.4-.5.5-1.7,0-2.7ZM227.2,1204.6s0,0,0,0c-.4-.5-1.2-1.3-2.2-2-.2-.2-.5-.4-.7-.5,0,0,0,0,0,0-1.5-1.2-1.4-.9.2,1.1,1.8,2.4,3,3.1,3,2s-.1-.3-.3-.5ZM983.8,1212.6l-3.9-3.5.7.8s0,0,0,0l2.8,3.1c2.5,2.8,3.7,4,4.1,3.9.1,0,.2-.2.2-.4s-1.8-2-3.9-3.9ZM1135.7,1228.4c-.2,0-.8.5-1.6,1.2-.5.5-1.1,1-1.7,1.7-.6.7-1.1,1.3-1.4,1.8-.5.6-.6,1.1-.4,1.1.4,0,1.9-1.3,3.3-2.9,1.4-1.6,2.2-2.8,1.9-2.8ZM459.4,1073.1l4.1-10.9-2.9-7.8c-6.6-17.8-21-31.9-44.3-43.5-6.3-3.2-24.2-11-39.7-17.4-48.6-20.1-66.8-30.8-86.9-51.2-15.1-15.3-23.9-30.1-31.8-53.1-.2-.7-.5-1.4-.7-2.1-2.3-6.6-4.2-11.8-6-16.2-.1-.2-.2-.5-.3-.7-1.9-4.5-3.8-7.9-5.8-10.9,0,0,0,0,0,0-2.2-3.3-4.7-6.1-7.8-9-1.2-1.1-2.3-2.1-3.5-3.1-5.2-4.4-10.8-7.8-17-10.3,0,0,0,0,0,0-6.7-2.6-14.4-4.2-23.5-5-.2,0-.3,0-.4,0-4.4-.4-9.2-.5-14.4-.5s-9.9.1-14.3.4c-10.3.6-19,2-31.3,4.8l-9.4,2.1-.6,8.8c-.8,13.1,1.4,54.5,3.9,71.1.5,3.5,1.1,7,1.7,10.4,0,.1,0,.3,0,.4.1.7.2,1.3.4,2,.5,2.7,1,5.4,1.5,8.1,14.2,70.9,46.2,135.3,92.7,188.5,0,0,0,0,.1.1,1,1.2,2,2.3,3.1,3.5,27.7,30.9,60.3,57.8,97.2,79.9,3.8,2.3,7.7,4.5,11.6,6.7,1.7.9,3.3,1.8,5,2.7,1,.5,2,1.1,3.1,1.6,2,1,4.1,2.1,6.2,3.1.9.5,1.9.9,2.8,1.4,1.7.8,3.5,1.7,5.2,2.5,22,10.2,45.3,18.5,70.3,25,3.8,1,7,1.8,9.8,2.5.1,0,.3,0,.4.1,12,3,15.9,3.5,15.9,2.4s-1.9-6.4-4.2-13.4c-7.5-22.7-10.3-44-9.5-73.5,1-34.9,7.1-66.2,19.6-99ZM1000,1264c0,0,0-.2,0-.2-.5-1.1-.8-.8-.8.9,0,1.3.2,2.1.6,2,0,0,.1,0,.2-.1.4-.4.5-1.5.2-2.5ZM481.5,1315.8c-.5-.5-1.7-.5-2.7-.1,0,0,0,0,0,0-1.1.5-.7.8.9.8,1.3,0,2.1-.2,2-.5,0,0,0-.1-.1-.2ZM503.6,1329.4s0,0,0,0c-.7-.7-1.8-1.7-2.9-2.8l-.8-.7-3.1-2.8,3.4,3.9c3.2,3.7,4.3,4.6,4.3,3.5s-.3-.5-.9-1.1ZM782.5,1344.4s0,0,0-.1c-.5-.5-1.7-.5-2.7-.1-.4.2-.6.3-.7.5,0,.2.5.4,1.5.4,1.4,0,2.2-.2,1.9-.6ZM676.4,1344.3c-.5-.5-1.7-.5-2.7-.1-.2,0-.4.2-.5.2-.5.3,0,.6,1.3.6.8,0,1.4,0,1.8-.2.2-.1.3-.3,0-.5ZM763.4,1345.6c-.3-.1-.6-.2-1-.2-.6,0-1.3,0-1.9,0-.2,0-.5.1-.7.2-1,.4-.2.7,1.8.7s2.7-.3,1.8-.7ZM692,1345.7c-.5-.5-1.7-.5-2.7-.1-.3.1-.5.2-.6.3-.3.3.2.5,1.4.6,1.2,0,2-.2,2-.5,0,0,0-.2-.1-.2ZM802.2,1394.1c0,0-.1-.1-.2-.2-.6-.3-1.6-.3-2.5,0-.3.1-.5.2-.6.3-.3.3.2.5,1.4.5,1.5,0,2.3-.3,1.9-.8ZM788.1,1395.6c-.1-.1-.3-.2-.5-.3-.6-.2-1.4-.1-2.1.1,0,0,0,0-.1,0-1.1.5-.8.8.9.9,1.5,0,2.3-.3,1.9-.8ZM770.4,1396.9c-1-.4-2.6-.4-3.5,0-1,.4-.2.7,1.8.7s2.7-.3,1.8-.7ZM684.9,1397c-.5-.5-1.7-.5-2.7-.1-.2,0-.3.1-.4.2-.6.3-.1.6,1.3.7,1.2,0,2-.2,2-.5,0,0,0-.2-.1-.3Z"/>
      <path id="path6873" class="st2" d="M590.9,297.9c0,0,0-.2,0-.3-2.2-7.2-7.1-13.5-13.5-17.8-.3-.2-.5-.4-.8-.5-4.3-2.6-9.2-4.3-14.4-4.9,0,0,0,0-.1,0-1.1-.1-2.2-.2-3.3-.2-1.7,0-3.8.4-6.1,1-3.8,1.1-8,2.9-11.4,5-.2.1-.4.2-.6.4-1.9,1.2-3.5,2.5-4.6,3.7-3.3,3.6-5.7,8-7.1,12.6,0,.3-.2.6-.3,1,0,0,0,0,0,0-.8,2.9-1.2,6-1.2,9,0,3.1.4,6.1,1.2,9,0,.3.2.6.3.9.3,1,.7,2,1.1,2.9,3,6.7,6,10.6,11.2,13.9,0,0,0,0,.1,0,1.4.9,3,1.8,4.8,2.6,3,1.4,6,2.4,9,2.9,0,0,0,0,0,0,1.2.2,2.3.3,3.5.4.1,0,.2,0,.3,0,3.3.2,6.5-.2,9.7-1.2,4.3-1.3,8.5-3.7,12.2-7.1.5-.5,1-1,1.5-1.5,4.9-4.9,7.6-9.6,8.9-15.5,0,0,0,0,0,0,.5-2.6.8-5.6.8-8.9,0-2.7-.4-5.2-1.1-7.7ZM804.3,373.9c-14.9-17.6-42.4-14.6-53,5.8-3.5,6.8-4,9-3.5,17.4.4,7.8,1.3,10.6,4.7,15.5,5,7.2,9.5,10.7,17,13.4,3.9,1.4,7.9,2,11.7,1.8h0c3.8-.2,7.6-1.2,11.2-2.9,3.3-1.6,6.4-3.8,9.3-6.7.2-.2.4-.4.6-.6.2-.2.4-.4.6-.7,11.7-12.6,12.3-30.2,1.4-43ZM637.4,384.1c-6.4-3.6-12.4-4.4-20.4-2.2-1.9.5-3.9,1.2-6,2.1-.4.2-.9.4-1.3.5-.9.4-1.8.8-2.7,1.2-1.9.9-3.9,1.7-5.7,2.5-.6.3-1.3.5-1.9.8-1.2.5-2.5,1-3.7,1.5-1.2.5-2.4.9-3.6,1.3-3,1.1-5.9,2.1-8.8,2.9-1.1.3-2.3.7-3.4,1-10.3,2.8-19.8,4.1-28.6,3.8-1.3,0-2.7,0-4-.2-1.3-.1-2.6-.2-3.9-.4-1.9-.3-3.8-.6-5.7-1-1.2-.3-2.5-.6-3.7-.9-1.8-.5-3.7-1.1-5.5-1.8-1.2-.5-2.4-.9-3.6-1.5-.6-.3-1.2-.5-1.8-.8-11.6-5.5-25.7-19.7-32.4-32.8-6.4-12.3-9.9-16.2-17.5-19.5-.4-.2-.8-.3-1.2-.5-4.8-1.8-9.1-2.1-13.8-.8h0c-1.8.5-3.6,1.2-5.5,2.1-1.6.8-3.1,1.7-4.5,2.8-.2.2-.5.4-.7.6-4,3.4-6.8,8-8.1,13.1,0,0,0,.2,0,.3-.9,3.7-1,7.7-.2,11.6.3,1.3.7,2.7,1.1,4,.2.6.5,1.3.8,1.9,0,0,0,.2,0,.2,4.1,9.9,12.4,23.2,20.8,33.2,0,0,.1.2.2.2,8.5,10.2,19,18.8,30.7,25.6.8.5,1.6.9,2.5,1.4,1.7.9,3.4,1.8,5.1,2.7.7.3,1.3.7,2,1,.8.3,1.5.7,2.3,1,2.2,1,4.5,1.9,6.8,2.8.1,0,.2,0,.3.1.7.3,1.4.5,2.2.8.8.3,1.6.5,2.4.8.8.3,1.6.5,2.4.8.5.2,1,.3,1.6.5.4.1.9.3,1.3.4.5.1.9.3,1.4.4.5.2,1.1.3,1.7.4.3,0,.6.2.9.2,1,.2,2,.5,3,.7,9.6,2.2,21.8,2.6,34.8,1.5,0,0,.1,0,.2,0,10.4-.9,21.3-2.7,31.7-5.5,4.6-1.2,9.1-2.6,13.4-4.1,10-3.5,17.7-6.7,23.4-9.7,0,0,0,0,0,0,6.4-3.3,10.5-6.4,12.9-9.7.1-.2.3-.4.4-.6,8.3-12.6,4.6-29.6-7.9-36.7ZM804.3,373.9c-14.9-17.6-42.4-14.6-53,5.8-3.5,6.8-4,9-3.5,17.4.4,7.8,1.3,10.6,4.7,15.5,5,7.2,9.5,10.7,17,13.4,3.9,1.4,7.9,2,11.7,1.8h0c3.8-.2,7.6-1.2,11.2-2.9,3.3-1.6,6.4-3.8,9.3-6.7.2-.2.4-.4.6-.6.2-.2.4-.4.6-.7,11.7-12.6,12.3-30.2,1.4-43ZM637.4,384.1c-6.4-3.6-12.4-4.4-20.4-2.2-1.9.5-3.9,1.2-6,2.1-.4.2-.9.4-1.3.5-.9.4-1.8.8-2.7,1.2-1.9.9-3.9,1.7-5.7,2.5-.6.3-1.3.5-1.9.8-1.2.5-2.5,1-3.7,1.5-1.2.5-2.4.9-3.6,1.3-3,1.1-5.9,2.1-8.8,2.9-1.1.3-2.3.7-3.4,1-10.3,2.8-19.8,4.1-28.6,3.8-1.3,0-2.7,0-4-.2-1.3-.1-2.6-.2-3.9-.4-1.9-.3-3.8-.6-5.7-1-1.2-.3-2.5-.6-3.7-.9-1.8-.5-3.7-1.1-5.5-1.8-1.2-.5-2.4-.9-3.6-1.5-.6-.3-1.2-.5-1.8-.8-11.6-5.5-25.7-19.7-32.4-32.8-6.4-12.3-9.9-16.2-17.5-19.5-.4-.2-.8-.3-1.2-.5-4.8-1.8-9.1-2.1-13.8-.8h0c-1.8.5-3.6,1.2-5.5,2.1-1.6.8-3.1,1.7-4.5,2.8-.2.2-.5.4-.7.6-4,3.4-6.8,8-8.1,13.1,0,0,0,.2,0,.3-.9,3.7-1,7.7-.2,11.6.3,1.3.7,2.7,1.1,4,.2.6.5,1.3.8,1.9,0,0,0,.2,0,.2,4.1,9.9,12.4,23.2,20.8,33.2,0,0,.1.2.2.2,8.5,10.2,19,18.8,30.7,25.6.8.5,1.6.9,2.5,1.4,1.7.9,3.4,1.8,5.1,2.7.7.3,1.3.7,2,1,.8.3,1.5.7,2.3,1,2.2,1,4.5,1.9,6.8,2.8.1,0,.2,0,.3.1.7.3,1.4.5,2.2.8.8.3,1.6.5,2.4.8.8.3,1.6.5,2.4.8.5.2,1,.3,1.6.5.4.1.9.3,1.3.4.5.1.9.3,1.4.4.5.2,1.1.3,1.7.4.3,0,.6.2.9.2,1,.2,2,.5,3,.7,9.6,2.2,21.8,2.6,34.8,1.5,0,0,.1,0,.2,0,10.4-.9,21.3-2.7,31.7-5.5,4.6-1.2,9.1-2.6,13.4-4.1,10-3.5,17.7-6.7,23.4-9.7,0,0,0,0,0,0,6.4-3.3,10.5-6.4,12.9-9.7.1-.2.3-.4.4-.6,8.3-12.6,4.6-29.6-7.9-36.7ZM528.9,316.9c.3,1,.7,2,1.1,2.9,3,6.7,6,10.6,11.2,13.9,0,0,0,0,.1,0,1.4.9,3,1.8,4.8,2.6,3,1.4,6,2.4,9,2.9,0,0,0,0,0,0,1.2.2,2.3.3,3.5.4.1,0,.2,0,.3,0,3.3.2,6.5-.2,9.7-1.2,4.3-1.3,8.5-3.7,12.2-7.1.5-.5,1-1,1.5-1.5,4.9-4.9,7.6-9.6,8.9-15.5,0,0,0,0,0,0,.5-2.6.8-5.6.8-8.9,0-2.7-.4-5.2-1.1-7.7,0,0,0-.2,0-.3-2.2-7.2-7.1-13.5-13.5-17.8-.3-.2-.5-.4-.8-.5-4.3-2.6-9.2-4.3-14.4-4.9,0,0,0,0-.1,0-1.1-.1-2.2-.2-3.3-.2-1.7,0-3.8.4-6.1,1-3.8,1.1-8,2.9-11.4,5-.2.1-.4.2-.6.4-1.9,1.2-3.5,2.5-4.6,3.7-3.3,3.6-5.7,8-7.1,12.6,0,.3-.2.6-.3,1,0,0,0,0,0,0-.8,2.9-1.2,6-1.2,9,0,3.1.4,6.1,1.2,9,0,.3.2.6.3.9ZM1365.4,725.3c-8.6-6.1-16.8-12.7-24.5-19.8h0c-2.4-2.2-4.7-4.4-7-6.6-1.1-1-2.2-2.1-3.2-3.2h0c-2.8-2.9-5.6-5.8-8.3-8.8-28.8-31.8-49.3-69.8-56.9-107.2-1.1-5.5-3.1-18-4.3-27.8-4.9-38.6-14.1-69.7-31-104.7-14.7-30.5-32.4-58.1-51.4-80.1l-7.7-8.9,3.3-4.2.7-.9c.6-.8,1.2-1.6,1.8-2.3,10.4-13.5,15.4-22.9,19.7-37.1,5.3-17.3,3.8-23.2-11.4-38.9,0,0,0,0,0,0-.5-.5-1-1-1.5-1.5-.7-.7-1.4-1.5-2.2-2.2,0,0-.1-.1-.2-.2-37.8-37.8-82.3-61.6-132.3-70.7-14.1-2.6-22.2-3.1-49.4-3.1-16.5,0-26.7.2-39.1,1.2-1.1,0-2.3.2-3.4.3-3.3.3-6.9.7-10.7,1.1-1.1.1-2.2.2-3.4.4-2.9.3-6,.7-9.3,1.1-1.1.1-2.2.2-3.3.4-.4,0-.9.1-1.3.2-2.3.3-4.5.5-6.7.8-1.1.1-2.3.3-3.4.4-3.2.4-6.3.7-9.3,1-1.1.1-2.3.2-3.4.4-3.3.3-6.4.6-9.5.9-1.1.1-2.2.2-3.2.3-4.9.4-9.5.8-13.6,1.1-2.2.1-4.3.3-6.3.4-7.2.4-13,.5-17.2.3h0c-1.2,0-2.2-.1-3.2-.2-1-.1-1.9-.3-2.6-.4l-4.9-1.3v-.9c-.1,0-.6-3.2-.6-3.2l-1.2-8.3c-9.5-66.4-40.1-110.5-85.3-123-8.2-2.2-22.2-3-34.5-2.3-.7,0-1.5,0-2.2.2-5.4.4-10.4,1.1-14.2,2.1-22.4,6-42.5,19.1-62.6,40.8l-12.2,13.2-1.8-4.1c-8.5-20.1-26.5-40.8-42.9-49.3-13.7-7.1-24.6-9.7-41.5-9.7-26.1,0-45.8,9-67.4,30.6-21.1,21.1-39.6,53.1-53.7,93-5.4,15.1-7.3,19-9.7,19.5-1.6.3-10.6,1.9-19.9,3.6-23.3,4.1-47.1,10.3-71.3,18.5-42.8,14.4-76.9,33.3-101.9,56.5-.7.6-1.4,1.3-2.1,2-21.6,20.6-36,44.4-43.2,71.2-4.6,17.2-4.5,50.9,0,67.6,5.5,20.3,15.9,38.8,30.4,54.7.7.8,1.5,1.6,2.2,2.4,1.3,1.3,2.6,2.7,3.9,4,0,0,0,0,0,0,.9.9,1.7,1.7,2.6,2.5,3.7,3.5,7.7,6.7,11.8,9.9,4.3,3.2,7.9,6.3,8.1,6.8.2.5-3,3.5-6.9,6.6-3.1,2.4-7.4,6.3-12.2,11,0,0,0,0,0,0-1.8,1.7-3.6,3.5-5.5,5.4-5.1,5-10.5,10.6-15.7,16.1,0,0,0,0,0,0-1.2,1.2-2.3,2.5-3.5,3.7,0,0,0,0,0,0-6.4,6.9-12.3,13.5-16.6,18.8-57,70.3-91.1,150-101.9,237.8,0,.8-.2,1.6-.3,2.4-.3,2.6-.6,5.2-.9,7.8,0,.9-.2,1.8-.2,2.8,0,.9-.1,1.9-.2,3-1.4,23.1-.7,69.9,1.4,94.5,0,.9.1,1.7.2,2.5.3,3.1.6,5.8,1,7.9,11.5,72.7,33.8,131.3,72.1,189.4,21.8,33.1,47.6,62.9,76.7,89,0,0,0,0,0,0,.9.9,1.9,1.7,2.8,2.5,0,0,0,0,0,0,53.6,47.2,117.8,81.6,187.4,99.4,16.8,4.3,46.9,9.8,64.1,11.7.7,0,1.4.2,2.1.2.3,0,.5,0,.8,0,8.5.9,9.2,1.3,18.2,9.8.2.2.4.4.6.6,1,1,2.1,2,3.1,2.9,0,0,0,0,0,0,28.5,25.8,68.2,46,112.6,56.9,15.1,3.7,45.4,8.8,64.2,10.7.4,0,.9,0,1.4.1.9,0,2,.1,3.2.2,19,.8,73.1-.3,100.4-1.8.7,0,1.5,0,2.1-.1,4.6-.3,8.3-.6,10.7-.9.2,0,.4,0,.6,0,1-.1,2.1-.2,3.1-.4,99.2-12.4,177.5-40.4,246.2-88.1,30.1-20.9,57.9-45.3,82.9-72.9,1-1.2,2.1-2.3,3.1-3.5,24.2-27.2,45.8-57.4,64.4-90.3,40.2-71,70.2-162.1,81.6-247.8l1.7-13,7.6-3.2c11.2-4.7,22.1-11.8,32.5-21.3,1.6-1.4,3.1-2.9,4.6-4.4h0c14.2-14.1,27.4-32.4,39-54.5,11.7-22.3,16.3-35,16.3-44.8,0-11.1-2.8-15.3-16.5-25.1ZM459.4,1073.1c-12.5,32.9-18.6,64.1-19.6,99-.8,29.5,2,50.9,9.5,73.5,2.3,7,4.2,13.1,4.2,13.4,0,1-6.6-.2-15.9-2.4-.1,0-.3,0-.4-.1-13.8-3.3-33.3-8.8-46.6-13.7-11.4-4.1-22.6-8.8-33.5-13.9-1.7-.8-3.5-1.6-5.2-2.5-.9-.5-1.9-.9-2.8-1.4-2.1-1-4.1-2.1-6.2-3.1-1-.5-2-1.1-3.1-1.6-1.7-.9-3.3-1.8-5-2.7-41.3-22.5-78-51.9-108.9-86.5-1-1.2-2.1-2.3-3.1-3.5,0,0,0,0-.1-.1-46-52.9-78.4-117.6-92.7-188.5-.5-2.7-1.1-5.4-1.5-8.1-.1-.7-.2-1.3-.4-2,0-.1,0-.3,0-.4-.6-3.5-1.2-7-1.7-10.4-2.5-16.6-4.7-58-3.9-71.1l.6-8.8,9.4-2.1c10.6-2.4,21.2-4,31.3-4.8,10.1-.8,19.8-.7,28.7.2.1,0,.3,0,.4,0,8.7.9,16.7,2.6,23.5,5,0,0,0,0,0,0,2.4.9,4.7,1.9,6.8,3,3.1,1.6,6.7,4.2,10.2,7.3,4.2,3.7,8.3,8.1,11.3,12.2,0,0,0,0,0,0,1.4,1.9,2.5,3.7,3.4,5.3.6,1.2,1.5,3.2,2.5,5.6.1.2.2.4.3.7,1.8,4.5,4.1,10.5,6,16.2.2.7.5,1.4.7,2.1,7.8,23,16.7,37.8,31.8,53.1,20.1,20.4,38.3,31.1,86.9,51.2,15.5,6.4,33.4,14.2,39.7,17.4,23.3,11.6,37.7,25.8,44.3,43.5l2.9,7.8-4.1,10.9ZM481.5,993.9c-19.1-18.5-35.9-28.1-80.2-46.1-68.8-27.9-82.9-39.8-97.2-82-7.9-23.4-16.4-38.2-29.2-51.1h0c-3.7-3.7-7.6-7.1-11.7-10.2-3.3-2.5-6.8-4.8-10.4-7-1.8-1.1-3.6-2.1-5.5-3.1-4.7-2.5-9.5-4.6-14.6-6.5-2-.8-4.1-1.5-6.2-2.1-21.5-6.8-46.3-8.7-73.2-5.4-10.1,1.2-19.8,2.6-21.4,3.1l-3.1.9,3.3-15.4c13.1-60.4,41.7-119.4,82.2-169.3,15-18.5,44.2-47.4,61.6-61.1l12.5-9.8,16.5,5.1c40.5,12.7,81.3,19.1,146,23.1l13.6.8.7,20.9c.8,23.6,2.7,32.8,10.5,48.3,6.5,13,20.1,26.5,32.9,32.5l8.9,4.1-.9,10c-1.1,12,1.1,43,4.2,59.2,4.9,26.1,17.6,57.1,31.4,76.8,15.1,21.5,40.7,43.7,64.3,55.7l8.4,4.3-14.2,9.7c-1.4,1-2.8,1.9-4.2,2.9-1.1.8-2.2,1.5-3.3,2.3-2.4,1.7-4.7,3.4-7,5.1-8.4,6.2-16.4,12.5-24,19-1,.9-2,1.7-3,2.6-14.6,12.7-27.7,25.8-39.4,39.6,0,0,0,.1-.1.2-7.6,8.9-14.5,18.1-20.9,27.6-.3.5-.7,1-1,1.5,0,.1-.2.2-.2.3-4.6,6.9-9.3,14.1-11.3,17.5-.2.4-.4.7-.6,1l-3.1,5.5-10.9-10.6ZM674.7,832.6c-1.5-.4-3-.8-4.5-1.3-1-.3-2.1-.6-3.1-.9-.1,0-.2,0-.3-.1-1-.3-1.9-.6-2.9-.9-.4-.1-.9-.3-1.3-.4-.6-.2-1.2-.4-1.8-.6-.6-.2-1.2-.4-1.8-.6,0,0-.2,0-.2,0-2.2-.8-4.3-1.6-6.4-2.5-36.9-15.1-61.9-41.3-74.6-78-.2-.5-.3-1-.5-1.4-5.9-17.5-9-37.2-9.3-59.4,0-1.2,0-2.5,0-3.8,0-17.7.3-19.8,2.8-22.4,1.5-1.6,3.5-2.8,4.3-2.8,3.2,0,28-13.5,40.3-22,14.5-10,14.6-9.9,14.7,2.8.2,23.6,16.1,50.6,35.5,60.4,39.6,19.9,95.5-2.7,170-68.8,19.9-17.7,15.8-19,34.2,11.1,13.1,21.5,29.3,55.1,37.7,78.5,5.1,14,14,43.6,13.2,44.2-.2.1-7.7,1.7-16.6,3.5-68.7,13.5-146,37.4-204.4,63.3-6.3,2.8-12.4,5.1-13.4,5-1,0-6.3-1.3-11.8-2.7ZM1000,1264c0,.9-.2,1.7-.3,2.6-.2,1.5-.5,2.9-.8,4.4-1.8,8.2-2.6,8.8-31.4,23.2-47.6,23.8-103.2,40-166.3,48.2-6.4.8-12.3,1.5-18.7,2-1.1,0-2.3.2-3.5.2-5,.3-10.4.6-16.6.8-.6,0-1.3,0-1.9,0-7.5.2-16.3.3-27.1.4-16.6.1-32.1.2-41.2,0-1.2,0-2.4,0-3.4,0-2.5,0-4.2-.1-4.8-.2-2.5-.3-5.1-.6-7.5-.9-1-.1-2.1-.3-3.1-.4-52.2-6.9-88.3-19-118.3-39.3-10.6-7.2-27.3-23.2-35.7-34.1-15.9-20.7-25.4-46.7-28-75.8-.1-1.1-.2-2.2-.3-3.3-.7-9-.7-18.3,0-27.9,0-1,.1-2.1.2-3.2.9-10.7,2.6-21.7,5.1-32.9,9.3-40.9,34.7-94.3,62.7-131.7,6.2-8.3,13.8-17,22.3-25.7,1.4-1.4,2.8-2.9,4.3-4.3,4.3-4.3,8.9-8.6,13.6-12.8,1.1-1,2.3-2,3.5-3t0,0c9.2-8,19.1-15.9,29.3-23.3l11-8,3.6,3.4c5.9,5.5,15.8,20.3,20.1,30,5.6,12.7,8.6,26.2,9,40.5,0,0,0,0,0,0,0,1.1,0,2.2,0,3.3,0,0,0,0,0,0,0,6.6-.6,13.3-1.7,20.2-1.6,10-1.5,11.3,1,17.2,3.7,8.5,9.3,13.5,17.3,15.4,5.5,1.3,8.4,1.1,17.8-1.2,20.2-5.1,44.4-7,62-5.2,1.1.1,2.1.2,3.2.4,5.2.7,9.8,1.7,13.3,3.1,20.5,8,29.1,20.1,31.4,45,.1,1.3.2,2.7.3,4.1,0,0,0,.1,0,.2.3,4.1.3,8,0,12.4,0,1.5-.2,3-.4,4.7-.7,7.9-2.3,18-5,33.5-.9,5.1-1.2,11.7-.6,14.7,1.3,7.1,9.5,16.2,16.2,18,2.8.8,19.5,1.7,36.9,2,51.3.9,86.4,9.6,110.3,27.4.9.7,1.8,1.4,2.6,2.1,0,0,0,0,0,0,2.5,2.1,4.8,4.5,6.9,7,10.1,12.4,14.6,29.2,12.5,47ZM1321.1,769.9c-12.1,24.1-32.6,48.3-47.3,55.8-3.9,2-10.9,4.4-15.5,5.3-16.4,3.3-23.6,11.3-25.4,28.5-.5,4.2-.9,8.4-1.5,12.7-.1,1.1-.3,2.2-.4,3.4,0,.3,0,.7-.1,1-5.3,40.3-14.3,80.7-26.3,119-.4,1.3-.8,2.7-1.3,4-.4,1.3-.8,2.6-1.3,4-.4,1.3-.9,2.6-1.3,4-11.9,35.8-26.4,69.6-43.1,100-5.7,10.4-11.6,20.4-17.8,29.9-.2.3-.3.5-.5.8-.8,1.2-1.5,2.3-2.3,3.5-8.3,12.5-17.6,25.1-27.3,37.1,0,.1-.2.2-.2.3-14.2,17.7-29.2,33.9-42.9,46.3-.1.1-.3.3-.4.4,0,0-.2.2-.3.3-7.5,6.8-14,12.2-14.5,12.2s-1.5-2.8-1.9-6.3c-1.3-9.7-6.2-23.2-12.2-33.5-16.6-28.5-48.6-49.5-92.3-60.6-19.7-5-49.4-9.2-64.6-9.2h-9.2v-26c0-1.4,0-2.7,0-4-.1-13.2-.7-22.5-2.4-30.6-1.7-8.2-4.5-15.4-9-24.7-4-8.1-9.7-15.9-16.7-22.7-.1-.2-.3-.3-.5-.5-11.3-11-25.9-19.7-41.4-24.5-.2,0-.3-.1-.5-.2-.7-.2-1.5-.4-2.2-.6-11.6-3.2-37.7-5.8-48.7-4.9-23.8,2-21.5,2.2-22.5-2.6-.5-2.4-.9-6.2-.9-8.5,0-17.5-11.7-49.2-26.2-71l-10.4-15.7,17.9-8.6c94.9-45.5,238.2-79.9,369.8-88.9,17.7-1.2,24.5-4,29.9-12.2,3.2-4.8,4-7.7,4-14.2s-2.4-13.3-6.6-17.7c-1.7-1.8-3.7-3.3-6-4.5-.4-.2-.8-.4-1.2-.6-.8-.4-1.6-.7-2.4-1-3.4-1.2-7.2-1.8-11.4-1.9-10.7,0-48.5,3.6-82.5,7.9-15.5,2-28.6,3.1-29.1,2.5s-2-5.3-3.3-10.4c-12.8-48.9-32-91.7-65.3-145.3-24.3-39.2-28.6-44.9-35.5-47.8-.4-.2-.8-.3-1.2-.5-.8-.3-1.6-.6-2.4-.8-.8-.2-1.6-.4-2.4-.5-3.8-.7-7.4-.3-11.4,1.4-.3.1-.6.2-.8.4-.6.2-1.1.5-1.7.8-.3.2-.6.3-.9.5-.6.3-1.2.7-1.8,1.1-2.1,1.4-4.4,3-6.8,5.1-.7.6-1.4,1.2-2.1,1.8-.4.3-.7.6-1.1,1-1.1,1-2.3,2.1-3.5,3.2-1.2,1.1-2.5,2.3-3.8,3.6-48.1,47.1-96.4,80.9-123.8,86.5-16.9,3.5-22.2-2.1-23-24.6-.6-15.8,1.3-31.4,6.2-50.6,6.1-23.8,3.6-34.2-9.8-41-14.3-7.2-20.7-4.7-42.6,16.2-31.9,30.6-70.4,56-91.5,60.3-7.4,1.5-8.7,1.4-13.3-1.1-2.1-1.2-4.5-3.1-6.2-4.8-.3-.3-.5-.6-.8-.8-.2-.3-.4-.5-.6-.8-6.6-9.2-8.7-35.3-4.7-57.7,2.9-16.2,2.6-23.2-1.1-29.9-5.1-9.1-11.9-12.1-27.9-12.1-57.7-.2-121-7.8-160.4-19.2-10.3-3-13.8-4.8-18.4-9.3-3.1-3.1-7.7-6.3-10.2-7.2-2.9-1-4.6-2.6-4.6-4.1s3.2-40.9,7.1-87.8c3.9-46.9,7.1-86.7,7.1-88.6,0-2.6,1.5-4,7.5-6.7,27.9-12.4,74.9-24.7,115.2-30,24.7-3.3,28.1-6.2,35-30.3,6.7-23.6,23.1-64,26.9-66.1,1.4-.8,96.3,3.8,97.1,4.7,1.2,1.5,3.8,22,3.8,30.8,0,21.1,6.3,31.4,21,34.7,14.3,3.2,24.1-3.8,31.9-23.2,2.9-7.3,8.8-19.5,13.1-27.2l7.7-14,12.2.8c16.8,1.2,94.3,5,100.8,5s5.4.4,6.8,5.3c2.8,9.8,7.1,37.6,7.1,45.7,0,10.5,2,17.6,6.6,23,4.8,5.8,9.3,8,24.1,11.7,19.8,5,56.3,4.4,106.3-1.7,46.9-5.7,82.9-6.5,106.7-2.3,36.4,6.5,69,22.6,97.5,48.3l8.5,7.6-3.8,5.8c-5.4,8.2-10.5,12.7-19.8,17.5-10.7,5.5-15.8,13-15.8,23.2,0,9.7,2.3,13.5,16.8,28.5,38,39.3,65.5,85.7,79.2,133.7,2.8,9.9,6.5,28.8,9,46.4,6.3,44.2,14.7,70.8,32.1,102.4,18.6,33.7,38.4,57.2,77.2,91.8l5.5,4.9-4.6,9.2ZM751.3,379.6c-3.5,6.8-4,9-3.5,17.4.4,7.8,1.3,10.6,4.7,15.5,5,7.2,9.5,10.7,17,13.4,3.9,1.4,7.9,2,11.7,1.8h0c3.8-.2,7.6-1.2,11.2-2.9,3.3-1.6,6.4-3.8,9.3-6.7.2-.2.4-.4.6-.6.2-.2.4-.4.6-.7,11.7-12.6,12.3-30.2,1.4-43-14.9-17.6-42.4-14.6-53,5.8ZM637.4,384.1c-6.4-3.6-12.4-4.4-20.4-2.2-1.9.5-3.9,1.2-6,2.1-.4.2-.9.4-1.3.5-.9.4-1.8.8-2.7,1.2-1.9.9-3.9,1.7-5.7,2.5-.6.3-1.3.5-1.9.8-1.2.5-2.5,1-3.7,1.5-1.2.5-2.4.9-3.6,1.3-3,1.1-5.9,2.1-8.8,2.9-1.1.3-2.3.7-3.4,1-10.3,2.8-19.8,4.1-28.6,3.8-1.3,0-2.7,0-4-.2-1.3-.1-2.6-.2-3.9-.4-1.9-.3-3.8-.6-5.7-1-1.2-.3-2.5-.6-3.7-.9-1.8-.5-3.7-1.1-5.5-1.8-1.2-.5-2.4-.9-3.6-1.5-.6-.3-1.2-.5-1.8-.8-11.6-5.5-25.7-19.7-32.4-32.8-6.4-12.3-9.9-16.2-17.5-19.5-.4-.2-.8-.3-1.2-.5-4.8-1.8-9.1-2.1-13.8-.8h0c-1.8.5-3.6,1.2-5.5,2.1-1.6.8-3.1,1.7-4.5,2.8-.2.2-.5.4-.7.6-4,3.4-6.8,8-8.1,13.1,0,0,0,.2,0,.3-.9,3.7-1,7.7-.2,11.6.3,1.3.7,2.7,1.1,4,.2.6.5,1.3.8,1.9,0,0,0,.2,0,.2,4.1,9.9,12.4,23.2,20.8,33.2,0,0,.1.2.2.2,8.5,10.2,19,18.8,30.7,25.6.8.5,1.6.9,2.5,1.4,1.7.9,3.4,1.8,5.1,2.7.7.3,1.3.7,2,1,.8.3,1.5.7,2.3,1,2.2,1,4.5,1.9,6.8,2.8.1,0,.2,0,.3.1.7.3,1.4.5,2.2.8.8.3,1.6.5,2.4.8.8.3,1.6.5,2.4.8.5.2,1,.3,1.6.5.4.1.9.3,1.3.4.5.1.9.3,1.4.4.5.2,1.1.3,1.7.4.3,0,.6.2.9.2,1,.2,2,.5,3,.7,9.6,2.2,21.8,2.6,34.8,1.5,0,0,.1,0,.2,0,10.4-.9,21.3-2.7,31.7-5.5,4.6-1.2,9.1-2.6,13.4-4.1,10-3.5,17.7-6.7,23.4-9.7,0,0,0,0,0,0,6.4-3.3,10.5-6.4,12.9-9.7.1-.2.3-.4.4-.6,8.3-12.6,4.6-29.6-7.9-36.7ZM528.9,316.9c.3,1,.7,2,1.1,2.9,3,6.7,6,10.6,11.2,13.9,0,0,0,0,.1,0,1.4.9,3,1.8,4.8,2.6,3,1.4,6,2.4,9,2.9,0,0,0,0,0,0,1.2.2,2.3.3,3.5.4.1,0,.2,0,.3,0,3.3.2,6.5-.2,9.7-1.2,4.3-1.3,8.5-3.7,12.2-7.1.5-.5,1-1,1.5-1.5,4.9-4.9,7.6-9.6,8.9-15.5,0,0,0,0,0,0,.5-2.6.8-5.6.8-8.9,0-2.7-.4-5.2-1.1-7.7,0,0,0-.2,0-.3-2.2-7.2-7.1-13.5-13.5-17.8-.3-.2-.5-.4-.8-.5-4.3-2.6-9.2-4.3-14.4-4.9,0,0,0,0-.1,0-1.1-.1-2.2-.2-3.3-.2-1.7,0-3.8.4-6.1,1-3.8,1.1-8,2.9-11.4,5-.2.1-.4.2-.6.4-1.9,1.2-3.5,2.5-4.6,3.7-3.3,3.6-5.7,8-7.1,12.6,0,.3-.2.6-.3,1,0,0,0,0,0,0-.8,2.9-1.2,6-1.2,9,0,3.1.4,6.1,1.2,9,0,.3.2.6.3.9Z"/>
      <path class="st1" d="M987.5,1217c-.4.1-1.7-1.1-4.1-3.9l-2.8-3.1s0,0,0,0c-.9-.7-1.7-1.4-2.6-2.1-24-17.7-59-26.4-110.3-27.4-17.5-.3-34.1-1.2-36.9-2-6.7-1.8-14.9-10.9-16.2-18-.5-3-.3-9.6.6-14.7,2.8-15.5,4.3-25.6,5-33.5-.2-.2-.3-1.2-.3-2.8,0-2.3.3-3.1.7-1.8.2-4.4.2-8.3,0-12.4,0,0,0-.1,0-.2-.4.8-.7,0-.7-1.9s.1-2,.3-2.2c-2.3-24.9-10.9-37-31.4-45-3.5-1.4-8.1-2.4-13.3-3.1-.3.2-.9.3-1.9.3-1.4,0-1.8-.3-1.3-.7-17.6-1.7-41.8,0-62,5.2-9.4,2.4-12.2,2.6-17.8,1.2-8-1.9-13.6-6.9-17.3-15.4-2.6-5.9-2.7-7.3-1-17.2,1.1-6.9,1.7-13.6,1.7-20.2,0,0,0,0,0,0,0-.5,0-1.2,0-2,0-.5,0-.9,0-1.3,0,0,0,0,0,0-.3-14.3-3.3-27.8-9-40.5-4.3-9.7-14.2-24.4-20.1-30l-3.6-3.4-11,8c-10.2,7.4-20.1,15.3-29.3,23.3t0,0c-.2.2-.3.4-.5.7-1.5,2-2.6,2.9-2.9,2.4-4.7,4.2-9.3,8.5-13.6,12.8-.3.4-.8,1-1.3,1.6-1.2,1.3-2.5,2.5-3,2.8-8.5,8.7-16,17.4-22.3,25.7-28,37.4-53.4,90.8-62.7,131.7-2.5,11.2-4.2,22.2-5.1,32.9,0,0,0,.2.1.3.4,1,.4,2.2-.1,2.7,0,.1-.2.2-.3.1-.6,9.5-.6,18.8,0,27.9,0,.1.2.3.3.6.4,1,.4,2.2,0,2.7,2.7,29.1,12.1,55.1,28,75.8,8.4,10.9,25.1,26.8,35.7,34.1,30,20.4,66.2,32.5,118.3,39.3.1,0,.3-.2.5-.2,1-.4,2.2-.4,2.7.1.2.2.2.4,0,.5,2.5.3,5,.6,7.5.9.6,0,2.3.1,4.8.2.1,0,.3-.2.6-.3,1-.4,2.2-.4,2.7.1s.1.2.1.2c9.2,0,24.7,0,41.2,0,10.8-.1,19.6-.2,27.1-.4.6-.1,1.3-.1,1.9,0,6.3-.2,11.7-.4,16.6-.8,0-.1.2-.3.7-.5,1-.4,2.2-.4,2.7.1,0,0,0,0,0,.1,6.4-.5,12.2-1.1,18.7-2,63.1-8.2,118.7-24.4,166.3-48.2,28.8-14.5,29.6-15.1,31.4-23.2.3-1.5.6-2.9.8-4.4-.4.2-.6-.6-.6-2,0-1.7.4-2,.8-.9,0,0,0,.2,0,.2,2.1-17.8-2.5-34.6-12.5-47ZM821.8,1174.3c-.3,0-1.4-1.1-2.5-2.5-1.8-2.3-1.7-2.3.5-.5,2.3,1.9,3.1,3,1.9,3Z"/>
    </g>
  </g>
</svg>